<?xml version="1.0" encoding="UTF-8" standalone="no"?><!DOCTYPE svg PUBLIC "-//W3C//DTD SVG 1.1//EN" "http://www.w3.org/Graphics/SVG/1.1/DTD/svg11.dtd"><svg width="100%" height="100%" viewBox="0 0 740 230" version="1.1" xmlns="http://www.w3.org/2000/svg" xmlns:xlink="http://www.w3.org/1999/xlink" xml:space="preserve" style="fill-rule:evenodd;clip-rule:evenodd;stroke-linejoin:round;stroke-miterlimit:1.41421;"><g><path d="M103.59,23.17c-6.67,39.93 -13.22,79.93 -17.13,120.25c-4.42,0.68 -8.96,1.66 -13.41,0.61c-9.02,-1.91 -16.79,-7.46 -23.25,-13.83c-10.02,-10.18 -18.68,-21.68 -25.84,-34.02c0.64,-0.59 1.29,-1.17 1.94,-1.75c22.51,-20.65 45.11,-41.21 67.63,-61.84c3.39,-3.11 6.89,-6.09 10.06,-9.42Z" style="fill:#000;fill-rule:nonzero;"/><path d="M107.68,22.34c0.7,0.42 2.11,1.27 2.81,1.7c32.04,18.43 63.99,37.04 96.09,55.35c-10.37,6.77 -20.86,13.37 -31.54,19.65c-21.75,12.93 -43.68,25.67 -66.7,36.22c-4.04,-37.5 -2.41,-75.33 -0.66,-112.92Z" style="fill:#000;fill-rule:nonzero;"/><path d="M113.46,158.22c32.76,-23.67 64.21,-49.11 95.21,-75.03l-0.34,1.82c-7.5,33.31 -14.62,66.72 -21.84,100.1c-16.51,-0.31 -33.21,-2.14 -48.88,-7.61c-9.79,-3.57 -19.65,-9.44 -24.15,-19.28Z" style="fill:#c00044;fill-rule:nonzero;"/><path d="M20.86,99.06c8.33,18.42 16.28,37.1 26.51,54.59c4.64,7.79 9.43,15.66 16.04,21.97c2.92,2.59 6.46,5.23 10.59,4.9c4,-0.54 7.51,-2.7 11.15,-4.31c0.54,4.42 0.56,9.06 2.38,13.2c1.95,4.02 6.73,5.14 10.68,6.17c9.49,1.87 19.23,1.27 28.84,1.14c21.6,-1.37 43.12,-4.1 64.4,-8.1c0.9,-4.39 1.82,-8.77 2.67,-13.16c1.53,-6.91 3.01,-13.83 4.25,-20.79c170.68,-0.19 341.36,-0.08 512.04,-0.06c-0.01,0.95 -0.02,2.84 -0.03,3.79c-169.27,0.06 -338.54,0 -507.82,0.03c-2.01,8.27 -3.96,16.56 -5.93,24.84c-0.45,2.06 -1.39,6.04 -1.39,6.04c-0.28,1.08 -0.56,2.17 -0.84,3.25c-5.75,0.4 -90.53,11.75 -127.37,15.9c-16.39,-35.74 -32.79,-71.46 -49.11,-107.23c0.98,-0.72 1.96,-1.45 2.94,-2.17Z" style="fill:#c00044;fill-rule:nonzero;"/><path d="M282.59,165c0.91,0 2.71,0 3.61,0.011c0.17,8.589 -0.02,17.179 0.11,25.769c8.7,0.13 17.4,-0.02 26.09,0.08c0,0.79 0.01,2.36 0.01,3.14c-9.94,0 -19.88,0 -29.82,0c0,-9.67 0,-19.34 0,-29Z" style="fill:#000;fill-rule:nonzero;"/><path d="M671.7,169.87c2.29,-3.18 6.45,-4.16 10.14,-4.59c7.55,-0.69 15.55,-0.54 22.5,2.88c-0.83,0.91 -1.68,1.79 -2.53,2.67c-5.99,-2.17 -12.51,-2.91 -18.84,-2.33c-2.97,0.51 -7.05,0.94 -8.02,4.39c0.13,2.56 2.79,3.36 4.89,3.73c6.71,1.03 13.6,0.52 20.28,1.82c3.71,0.58 7.51,3.7 6.79,7.8c-0.6,4.41 -5.17,6.69 -9.1,7.47c-9.41,1.31 -19.55,1.19 -28.12,-3.44c0.6,-0.68 1.79,-2.04 2.39,-2.72c8.51,3.75 18.58,5.04 27.44,1.81c2.91,-0.8 4.08,-5.46 1.03,-6.81c-8.38,-3.21 -17.85,-0.71 -26.25,-3.84c-3.5,-1.15 -4.8,-5.98 -2.6,-8.84Z" style="fill:#000;fill-rule:nonzero;"/><path d="M400.68,194.34c5.94,-9.83 12.13,-19.51 18.36,-29.16c1.51,0 3.02,-0.01 4.54,-0.019c6.23,9.639 12.36,19.349 18.23,29.199c-0.97,0 -2.93,-0.01 -3.91,-0.01c-2.11,-2.14 -3.34,-5.01 -5.08,-7.45c-7.61,0.12 -15.24,-0.16 -22.84,0.12c-2.17,2.02 -3.32,5.04 -5.12,7.43c-1.4,-0.03 -2.79,-0.07 -4.18,-0.11ZM411.89,183.55c3.05,-5.1 6.28,-10.09 9.46,-15.11c3.08,5.07 6.31,10.04 9.37,15.12c-6.28,0.05 -12.55,0.06 -18.83,-0.01Z" style="fill:#000;"/><path d="M536.74,165.2c8.46,0.02 16.92,-0.079 25.38,0.031c3.72,0.259 8.3,0.71 10.49,4.189c2.11,3.85 0.14,8.85 -4.05,10.16c3.54,1.02 6.85,4.33 6.03,8.27c-0.57,4.12 -4.89,6.44 -8.74,6.41c-9.74,0.35 -19.5,0.06 -29.25,0.14c0.06,-9.74 -0.18,-19.48 0.14,-29.2ZM540.44,181.05c6.5,-0.1 13,-0.02 19.5,-0.07c2.9,0.09 6.04,-0.05 8.64,1.47c2.62,1.49 2.93,5.77 0.4,7.48c-1.72,1.36 -4,1.09 -6.03,1.17c-7.51,-0.04 -15.03,0.03 -22.54,-0.05c-0.01,-3.34 -0.02,-6.67 0.03,-10ZM540.41,168.66c7.54,0.03 15.09,-0.06 22.64,0.03c2.38,0.06 5.65,0.52 6.32,3.28c1.01,3.23 -2.38,5.64 -5.27,5.78c-7.86,0.21 -15.72,0.02 -23.58,0.07c-0.14,-3.05 -0.13,-6.1 -0.11,-9.16Z" style="fill:#000;"/><text x="261px" y="149.14px" style="font-family:'Vipnagorgialla';font-size:207.788px;fill:#000;">v<tspan x="395.264px 530.997px 582.605px " y="149.14px 149.14px 149.14px ">oid</tspan></text></g></svg>