<?xml version="1.0" encoding="UTF-8" standalone="no"?>
<!DOCTYPE svg PUBLIC "-//W3C//DTD SVG 1.1//EN" "http://www.w3.org/Graphics/SVG/1.1/DTD/svg11.dtd">
<svg width="100%" height="100%" viewBox="0 0 3084 959" version="1.1" xmlns="http://www.w3.org/2000/svg" xmlns:xlink="http://www.w3.org/1999/xlink" xml:space="preserve" style="fill-rule:evenodd;clip-rule:evenodd;stroke-linejoin:round;stroke-miterlimit:1.41421;">
    <g transform="matrix(4.16667,0,0,4.16667,-0,-0)">
        <g>
            <path d="M103.59,23.17C96.92,63.1 90.37,103.1 86.46,143.42C82.04,144.1 77.5,145.08 73.05,144.03C64.03,142.12 56.26,136.57 49.8,130.2C39.78,120.02 31.12,108.52 23.96,96.18C24.6,95.59 25.25,95.01 25.9,94.43C48.41,73.78 71.01,53.22 93.53,32.59C96.92,29.48 100.42,26.5 103.59,23.17Z" style="fill:black;fill-rule:nonzero;"/>
            <path d="M107.68,22.34C108.38,22.76 109.79,23.61 110.49,24.04C142.53,42.47 174.48,61.08 206.58,79.39C196.21,86.16 185.72,92.76 175.04,99.04C153.29,111.97 131.36,124.71 108.34,135.26C104.3,97.76 105.93,59.93 107.68,22.34Z" style="fill:black;fill-rule:nonzero;"/>
            <path d="M113.46,158.22C146.22,134.55 177.67,109.11 208.67,83.19L208.33,85.01C200.83,118.32 193.71,151.73 186.49,185.11C169.98,184.8 153.28,182.97 137.61,177.5C127.82,173.93 117.96,168.06 113.46,158.22Z" style="fill:rgb(192,0,68);fill-rule:nonzero;"/>
            <path d="M20.86,99.06C29.19,117.48 37.14,136.16 47.37,153.65C52.01,161.44 56.8,169.31 63.41,175.62C66.33,178.21 69.87,180.85 74,180.52C78,179.98 81.51,177.82 85.15,176.21C85.69,180.63 85.71,185.27 87.53,189.41C89.48,193.43 94.26,194.55 98.21,195.58C107.7,197.45 117.44,196.85 127.05,196.72C148.65,195.35 170.17,192.62 191.45,188.62C192.35,184.23 193.27,179.85 194.12,175.46C195.65,168.55 197.13,161.63 198.37,154.67C369.05,154.48 539.73,154.59 710.41,154.61C710.4,155.56 710.39,157.45 710.38,158.4C541.11,158.46 371.84,158.4 202.56,158.43C200.55,166.7 198.6,174.99 196.63,183.27C196.18,185.33 195.24,189.31 195.24,189.31C194.96,190.39 194.68,191.48 194.4,192.56C188.65,192.96 103.87,204.31 67.03,208.46C50.64,172.72 34.24,137 17.92,101.23C18.9,100.51 19.88,99.78 20.86,99.06Z" style="fill:rgb(192,0,68);fill-rule:nonzero;"/>
            <path d="M282.59,165C283.5,165 285.3,165 286.2,165.011C286.37,173.6 286.18,182.19 286.31,190.78C295.01,190.91 303.71,190.76 312.4,190.86C312.4,191.65 312.41,193.22 312.41,194C302.47,194 292.53,194 282.59,194C282.59,184.33 282.59,174.66 282.59,165Z" style="fill:black;fill-rule:nonzero;"/>
            <path d="M671.7,169.87C673.99,166.69 678.15,165.71 681.84,165.28C689.39,164.59 697.39,164.74 704.34,168.16C703.51,169.07 702.66,169.95 701.81,170.83C695.82,168.66 689.3,167.92 682.97,168.5C680,169.01 675.92,169.44 674.95,172.89C675.08,175.45 677.74,176.25 679.84,176.62C686.55,177.65 693.44,177.14 700.12,178.44C703.83,179.02 707.63,182.14 706.91,186.24C706.31,190.65 701.74,192.93 697.81,193.71C688.4,195.02 678.26,194.9 669.69,190.27C670.29,189.59 671.48,188.23 672.08,187.55C680.59,191.3 690.66,192.59 699.52,189.36C702.43,188.56 703.6,183.9 700.55,182.55C692.17,179.34 682.7,181.84 674.3,178.71C670.8,177.56 669.5,172.73 671.7,169.87Z" style="fill:black;fill-rule:nonzero;"/>
            <path d="M400.68,194.34C406.62,184.51 412.81,174.83 419.04,165.18C420.55,165.18 422.06,165.17 423.58,165.161C429.81,174.8 435.94,184.51 441.81,194.36C440.84,194.36 438.88,194.35 437.9,194.35C435.79,192.21 434.56,189.34 432.82,186.9C425.21,187.02 417.58,186.74 409.98,187.02C407.81,189.04 406.66,192.06 404.86,194.45C403.46,194.42 402.07,194.38 400.68,194.34ZM411.89,183.55C414.94,178.45 418.17,173.46 421.35,168.44C424.43,173.51 427.66,178.48 430.72,183.56C424.44,183.61 418.17,183.62 411.89,183.55Z" style="fill:black;"/>
            <path d="M536.74,165.2C545.2,165.22 553.66,165.121 562.12,165.231C565.84,165.49 570.42,165.941 572.61,169.42C574.72,173.27 572.75,178.27 568.56,179.58C572.1,180.6 575.41,183.91 574.59,187.85C574.02,191.97 569.7,194.29 565.85,194.26C556.11,194.61 546.35,194.32 536.6,194.4C536.66,184.66 536.42,174.92 536.74,165.2ZM540.44,181.05C546.94,180.95 553.44,181.03 559.94,180.98C562.84,181.07 565.98,180.93 568.58,182.45C571.2,183.94 571.51,188.22 568.98,189.93C567.26,191.29 564.98,191.02 562.95,191.1C555.44,191.06 547.92,191.13 540.41,191.05C540.4,187.71 540.39,184.38 540.44,181.05ZM540.41,168.66C547.95,168.69 555.5,168.6 563.05,168.69C565.43,168.75 568.7,169.21 569.37,171.97C570.38,175.2 566.99,177.61 564.1,177.75C556.24,177.96 548.38,177.77 540.52,177.82C540.38,174.77 540.39,171.72 540.41,168.66Z" style="fill:black;"/>
            <g transform="matrix(1.83106,0,0,1.8136,-205.92,-68.6174)">
                <path d="M329.128,76.073L305.183,119.954L278.258,119.954L254.427,76.073L278.602,76.073L291.663,101.279L304.953,76.073L329.128,76.073Z" style="fill:black;fill-rule:nonzero;"/>
                <path d="M400.85,106.435C400.85,110.559 399.953,113.615 398.158,115.601C396.363,117.587 393.403,118.885 389.278,119.496C386.987,119.802 383.588,119.954 379.082,119.954L353.532,119.954C349.025,119.954 345.588,119.802 343.22,119.496C339.172,118.885 336.251,117.587 334.456,115.601C332.661,113.615 331.763,110.559 331.763,106.435L331.763,89.593C331.763,85.545 332.661,82.508 334.456,80.484C336.251,78.46 339.172,77.181 343.22,76.646C345.588,76.264 349.025,76.073 353.532,76.073L379.082,76.073C382.977,76.073 386.223,76.264 388.82,76.646C393.098,77.181 396.172,78.422 398.043,80.37C399.915,82.317 400.85,85.392 400.85,89.593L400.85,106.435ZM379.196,102.769L379.196,93.374C379.196,91.77 378.547,90.815 377.248,90.509C377.248,90.509 375.797,90.509 372.895,90.509L356.511,90.509C354.449,90.662 353.417,91.617 353.417,93.374L353.417,102.769C353.417,103.914 353.608,104.64 353.99,104.945C354.372,105.251 355.212,105.442 356.511,105.518L372.895,105.518C376.485,105.518 378.47,105.251 378.852,104.716C379.082,104.411 379.196,103.762 379.196,102.769Z" style="fill:black;fill-rule:nonzero;"/>
                <path d="M428.92,76.188L407.152,76.188L407.152,63.241L428.92,63.241L428.92,76.188ZM428.92,119.954L407.152,119.954L407.152,80.198L428.92,80.198L428.92,119.954Z" style="fill:black;fill-rule:nonzero;"/>
                <path d="M499.955,119.954L454.814,119.954C450.384,119.954 447.137,119.84 445.075,119.611C440.798,119 437.723,117.701 435.852,115.715C433.981,113.729 433.045,110.636 433.045,106.435L433.045,89.593C433.045,85.545 433.923,82.508 435.68,80.484C437.437,78.46 440.378,77.181 444.502,76.646C446.794,76.264 450.231,76.073 454.814,76.073L478.186,76.073L478.186,63.241L499.955,63.241L499.955,119.954ZM478.186,105.518L478.186,90.509L461.115,90.509C458.213,90.509 456.761,90.509 456.761,90.509C455.387,90.815 454.699,91.77 454.699,93.374L454.699,102.769C454.699,103.762 454.852,104.411 455.157,104.716C455.463,105.251 457.449,105.518 461.115,105.518L478.186,105.518Z" style="fill:black;fill-rule:nonzero;"/>
            </g>
        </g>
    </g>
</svg>
